# xmcd CD database file
#
# Track frame offsets:
#	150
#	22182
#	71315
#	118933
#	149150
#	239439
#	297497
#
# Disc length: 4454 seconds
#
# Revision: 0
# Processed by: cddbd v1.5.2PL0 Copyright (c) Steve Scherf et al.
# Submitted via: CDex 1.51
#
DISCID=74116407
DTITLE=musica para sentirse bien - meditacion espiritu de la india
DYEAR=2010
DGENRE=New Age
TTITLE0=aum
TTITLE1=meditacion
TTITLE2=concentracion
TTITLE3=mensaje de la india
TTITLE4=paraiso
TTITLE5=sesion de cuencos tibetanos
TTITLE6=pista de datos
EXTD=YEAR: 2010
EXTT0=
EXTT1=
EXTT2=
EXTT3=
EXTT4=
EXTT5=
EXTT6=
PLAYORDER=
